<?xml version="1.0" encoding="UTF-8"?>
<!DOCTYPE svg PUBLIC "-//W3C//DTD SVG 1.1//EN" "http://www.w3.org/Graphics/SVG/1.1/DTD/svg11.dtd">
<!-- Creator: CorelDRAW -->
<svg xmlns="http://www.w3.org/2000/svg" xml:space="preserve" width="2048px" height="2048px" style="shape-rendering:geometricPrecision; text-rendering:geometricPrecision; image-rendering:optimizeQuality; fill-rule:evenodd; clip-rule:evenodd"
viewBox="0 0 2048 2048"
 xmlns:xlink="http://www.w3.org/1999/xlink">
 <defs>
  <style type="text/css">
   <![CDATA[
    .fil2 {fill:none}
    .fil3 {fill:#BABAB9}
    .fil1 {fill:#E64A19}
    .fil5 {fill:#E6E6E5}
    .fil0 {fill:#FF7043}
    .fil4 {fill:#FFFFFE;fill-rule:nonzero}
   ]]>
  </style>
   <clipPath id="id0">
    <path d="M1024 -0.0011811c565.541,0 1024,458.461 1024,1024 0,565.541 -458.461,1024 -1024,1024 -565.541,0 -1024,-458.461 -1024,-1024 0,-565.541 458.461,-1024 1024,-1024z"/>
   </clipPath>
 </defs>
 <g id="Layer_x0020_1">
  <metadata id="CorelCorpID_0Corel-Layer"/>
  <path class="fil0" d="M1024 -0.0011811c565.541,0 1024,458.461 1024,1024 0,565.541 -458.461,1024 -1024,1024 -565.541,0 -1024,-458.461 -1024,-1024 0,-565.541 458.461,-1024 1024,-1024z"/>
  <g style="clip-path:url(#id0)">
   <g id="_517158376">
    <g>
     <polygon id="_2603308401" class="fil1" points="1236.92,483.506 2372.8,1619.39 2374.83,1622.65 2376.83,1625.94 2378.8,1629.26 2380.75,1632.61 2382.68,1635.99 2384.58,1639.4 2386.45,1642.84 2388.31,1646.31 2390.13,1649.81 2391.94,1653.33 2393.71,1656.89 2395.46,1660.47 2397.19,1664.08 2398.89,1667.72 2400.56,1671.39 2402.2,1675.08 2403.82,1678.81 2405.41,1682.55 2406.98,1686.33 2408.52,1690.13 2410.03,1693.95 2411.51,1697.8 2412.97,1701.68 2414.39,1705.58 2415.79,1709.51 2417.16,1713.46 2418.51,1717.43 2419.82,1721.43 2421.1,1725.45 2422.36,1729.5 2423.58,1733.57 2424.78,1737.66 1288.9,601.776 1287.7,597.684 1286.48,593.615 1285.22,589.57 1283.94,585.548 1282.62,581.549 1281.28,577.575 1279.91,573.624 1278.51,569.698 1277.09,565.797 1275.63,561.921 1274.15,558.07 1272.64,554.245 1271.1,550.445 1269.53,546.67 1267.94,542.924 1266.32,539.202 1264.68,535.509 1263,531.841 1261.31,528.202 1259.58,524.591 1257.83,521.007 1256.05,517.451 1254.25,513.924 1252.43,510.426 1250.57,506.957 1248.7,503.516 1246.8,500.105 1244.87,496.725 1242.92,493.374 1240.94,490.054 1238.94,486.765 "/>
     <polygon id="_260330888" class="fil1" points="1288.9,601.776 2424.78,1737.66 2426.06,1742.18 2427.3,1746.73 2428.51,1751.3 2429.67,1755.9 2430.81,1760.53 2431.9,1765.18 2432.96,1769.85 2433.97,1774.55 2434.95,1779.27 2435.89,1784.02 2436.79,1788.78 2437.65,1793.58 2438.48,1798.39 2439.26,1803.22 2440,1808.08 2440.7,1812.96 2441.37,1817.85 2441.99,1822.77 2442.57,1827.71 2443.1,1832.67 2443.6,1837.65 2444.05,1842.65 2444.47,1847.66 2444.84,1852.7 2445.17,1857.75 2445.45,1862.82 2445.69,1867.91 2445.89,1873.01 2446.05,1878.13 2446.16,1883.27 2446.22,1888.42 2446.25,1893.59 1310.36,757.707 1310.34,752.539 1310.28,747.387 1310.16,742.25 1310.01,737.129 1309.81,732.025 1309.57,726.937 1309.28,721.868 1308.96,716.815 1308.59,711.781 1308.17,706.765 1307.72,701.768 1307.22,696.79 1306.68,691.831 1306.1,686.892 1305.48,681.973 1304.82,677.075 1304.12,672.197 1303.38,667.34 1302.6,662.506 1301.77,657.693 1300.91,652.902 1300.01,648.134 1299.07,643.388 1298.09,638.666 1297.07,633.969 1296.02,629.294 1294.93,624.645 1293.79,620.02 1292.63,615.421 1291.42,610.847 1290.18,606.298 "/>
     <polygon id="_260331584" class="fil1" points="1310.36,757.707 2446.25,1893.59 2446.15,1904.34 2445.86,1915.03 2445.38,1925.64 2444.72,1936.18 2443.87,1946.64 2442.84,1957.02 2441.63,1967.31 2440.25,1977.51 2438.68,1987.62 2436.95,1997.63 2435.04,2007.55 2432.97,2017.37 2430.73,2027.08 2428.33,2036.68 2425.76,2046.17 2423.04,2055.54 2420.16,2064.8 2417.13,2073.94 2413.94,2082.95 2410.61,2091.83 2407.12,2100.58 2403.5,2109.2 2399.73,2117.68 2395.81,2126.02 2391.77,2134.22 2387.58,2142.27 2383.26,2150.17 2378.82,2157.91 2374.24,2165.5 2369.54,2172.93 2364.71,2180.19 2359.76,2187.29 1223.88,1051.41 1228.83,1044.31 1233.65,1037.05 1238.36,1029.62 1242.94,1022.03 1247.38,1014.29 1251.7,1006.39 1255.88,998.338 1259.93,990.141 1263.84,981.802 1267.61,973.32 1271.24,964.702 1274.72,955.948 1278.06,947.064 1281.25,938.053 1284.28,928.916 1287.16,919.66 1289.88,910.285 1292.45,900.794 1294.85,891.193 1297.09,881.483 1299.16,871.668 1301.07,861.752 1302.8,851.737 1304.37,841.627 1305.75,831.426 1306.96,821.135 1307.99,810.758 1308.84,800.299 1309.5,789.761 1309.98,779.148 1310.27,768.462 "/>
     <polygon id="_260332040" class="fil1" points="1223.88,1051.41 2359.76,2187.29 2355.42,2193.24 2350.99,2199.07 2346.48,2204.76 2341.88,2210.32 2337.21,2215.74 2332.45,2221.02 2327.62,2226.17 2322.71,2231.17 2317.72,2236.02 2312.66,2240.73 2307.53,2245.29 2302.33,2249.7 2297.06,2253.96 2291.72,2258.05 2286.32,2262 2280.85,2265.78 2275.32,2269.4 2269.73,2272.85 2264.07,2276.14 2258.37,2279.26 2252.6,2282.21 2246.78,2284.98 2240.91,2287.58 2234.98,2290 2229.01,2292.25 2222.99,2294.31 2216.91,2296.18 2210.8,2297.87 2204.64,2299.37 2198.44,2300.68 2192.19,2301.8 2185.91,2302.72 1050.03,1166.84 1056.31,1165.92 1062.56,1164.8 1068.76,1163.49 1074.92,1161.99 1081.03,1160.3 1087.1,1158.42 1093.13,1156.36 1099.1,1154.12 1105.03,1151.7 1110.9,1149.1 1116.72,1146.33 1122.49,1143.38 1128.19,1140.26 1133.84,1136.97 1139.44,1133.52 1144.97,1129.9 1150.43,1126.11 1155.84,1122.17 1161.18,1118.07 1166.45,1113.82 1171.65,1109.41 1176.78,1104.85 1181.84,1100.14 1186.83,1095.28 1191.74,1090.28 1196.57,1085.14 1201.33,1079.86 1206,1074.44 1210.6,1068.88 1215.11,1063.19 1219.54,1057.36 "/>
     <polygon id="_260332088" class="fil1" points="997.967,1166.84 2133.85,2302.72 2127.57,2301.8 2121.32,2300.68 2115.12,2299.37 2108.96,2297.87 2102.85,2296.18 2096.78,2294.31 2090.75,2292.25 2084.78,2290 2078.85,2287.58 2072.98,2284.98 2067.16,2282.21 2061.4,2279.26 2055.69,2276.14 2050.04,2272.85 2044.44,2269.4 2038.91,2265.78 2033.45,2262 2028.04,2258.06 2022.71,2253.96 2017.43,2249.7 2012.23,2245.29 2007.1,2240.73 2002.04,2236.02 866.161,1100.14 871.22,1104.85 876.351,1109.41 881.553,1113.82 886.824,1118.07 892.162,1122.17 897.565,1126.11 903.034,1129.9 908.564,1133.52 914.155,1136.97 919.807,1140.26 925.515,1143.38 931.28,1146.33 937.1,1149.1 942.973,1151.7 948.898,1154.12 954.872,1156.37 960.896,1158.42 966.967,1160.3 973.083,1161.99 979.242,1163.49 985.443,1164.8 991.686,1165.92 "/>
     <polygon id="_260331560" class="fil1" points="1050.03,1166.84 2185.91,2302.72 2185.96,2311.92 2186.1,2321.33 2186.32,2330.93 2186.62,2340.73 2186.99,2350.71 2187.43,2360.85 2187.92,2371.16 2188.47,2381.6 2189.07,2392.18 2189.71,2402.88 2190.39,2413.7 2191.1,2424.61 2191.83,2435.61 2192.58,2446.69 2193.34,2457.83 2194.1,2469.03 2194.87,2480.27 2195.63,2491.54 2196.38,2502.84 2197.11,2514.14 2197.82,2525.44 2198.5,2536.73 2199.14,2547.99 2199.74,2559.22 2200.29,2570.4 2200.78,2581.52 2201.22,2592.57 2201.59,2603.54 2201.89,2614.41 2202.11,2625.19 2202.25,2635.85 2202.3,2646.38 1066.41,1510.5 1066.37,1499.96 1066.23,1489.31 1066.01,1478.53 1065.71,1467.66 1065.34,1456.69 1064.9,1445.63 1064.41,1434.51 1063.86,1423.33 1063.26,1412.11 1062.61,1400.85 1061.94,1389.56 1061.23,1378.26 1060.5,1366.95 1059.75,1355.66 1058.99,1344.39 1058.22,1333.15 1057.46,1321.95 1056.7,1310.8 1055.95,1299.73 1055.22,1288.73 1054.51,1277.81 1053.83,1267 1053.19,1256.3 1052.59,1245.72 1052.04,1235.27 1051.54,1224.97 1051.11,1214.83 1050.74,1204.85 1050.44,1195.05 1050.22,1185.44 1050.08,1176.04 "/>
     <polygon id="_260332328" class="fil1" points="1276.07,1584 2411.95,2719.88 2159.88,2719.88 1024,1584 "/>
     <polygon id="_260332952" class="fil1" points="1024,1584 2159.88,2719.88 1921.23,2719.88 785.35,1584 "/>
     <polygon id="_260332736" class="fil1" points="785.35,1584 1921.23,2719.88 1919.69,2719.82 1918.23,2719.75 1916.87,2719.69 1915.6,2719.63 1914.42,2719.58 1913.33,2719.52 1912.34,2719.47 1911.44,2719.42 1910.64,2719.37 1909.95,2719.32 1909.35,2719.28 1908.86,2719.24 1908.47,2719.2 1908.18,2719.16 1908.01,2719.12 1907.94,2719.09 772.054,1583.21 772.124,1583.24 772.302,1583.27 772.587,1583.31 772.977,1583.35 773.47,1583.39 774.067,1583.44 774.764,1583.49 775.561,1583.53 776.456,1583.59 777.448,1583.64 778.535,1583.7 779.716,1583.75 780.989,1583.81 782.353,1583.87 783.807,1583.94 "/>
     <polygon id="_260332856" class="fil1" points="1271.19,1557.73 2407.07,2693.61 2408.59,2695.21 2409.94,2696.93 2411.11,2698.76 2412.09,2700.68 2412.89,2702.69 2413.5,2704.77 2413.91,2706.89 2414.12,2709.05 2414.12,2711.23 2413.91,2713.42 2413.48,2715.6 2412.83,2717.76 2411.95,2719.88 1276.07,1584 1276.95,1581.88 1277.6,1579.72 1278.02,1577.54 1278.24,1575.35 1278.24,1573.17 1278.03,1571.01 1277.62,1568.88 1277.01,1566.81 1276.21,1564.8 1275.22,1562.87 1274.05,1561.04 1272.71,1559.32 "/>
    </g>
    <path id="_517158616" class="fil1" d="M1024.27 463.999c112.357,0 204.415,8.60434 212.601,19.5177 0.0177165,-0.00354331 0.034252,-0.00708662 0.0519685,-0.0106299 21.6992,34.5933 39.3768,74.5075 51.9744,118.27 13.8449,48.0957 21.4677,100.723 21.4677,155.932 0,115.08 -33.052,218.893 -86.4875,293.703 -45.841,64.1764 -106.638,106.642 -173.844,115.432 0,96.8977 16.3819,232.031 16.3819,343.654 32.5725,1.70197 63.5493,5.27953 91.9442,10.4043 42.8008,7.72442 79.6583,19.0784 107.283,32.9362 11.1224,5.56182 15.7181,18.9803 10.428,30.1642l-252.07 0 -238.65 0c-8.4567,-0.349607 -13.2154,-0.625985 -13.2957,-0.79252 -5.53819,-11.3728 -0.807875,-25.0819 10.565,-30.6201 27.7087,-13.5024 64.3312,-24.554 106.711,-32.0776 28.3795,-5.03859 59.4579,-8.52757 92.2548,-10.135 0.011811,-111.599 16.3819,-246.671 16.3819,-343.533 -67.206,-8.78859 -128.003,-51.2552 -173.844,-115.432 -53.4355,-74.8099 -86.4875,-178.623 -86.4875,-293.703 0,-55.2083 7.62284,-107.836 21.4677,-155.932 12.5976,-43.7622 30.2752,-83.6764 51.9744,-118.27 0.173622,0.0366142 0.347244,0.0732284 0.520867,0.109843 7.70434,-10.9606 99.9757,-19.6169 212.671,-19.6169z"/>
   </g>
  </g>
  <path class="fil2" d="M1024 -0.0011811c565.541,0 1024,458.461 1024,1024 0,565.541 -458.461,1024 -1024,1024 -565.541,0 -1024,-458.461 -1024,-1024 0,-565.541 458.461,-1024 1024,-1024z"/>
  <ellipse class="fil3" cx="1024.27" cy="485.102" rx="213.192" ry="21.1027"/>
  <path class="fil4" d="M782.619 1552.59c-11.3728,5.53819 -16.1032,19.2473 -10.565,30.6201 0.080315,0.166536 4.83898,0.442914 13.2957,0.79252l490.72 0c5.29016,-11.1839 0.694489,-24.6024 -10.428,-30.1642 -27.6248,-13.8579 -64.4823,-25.2118 -107.283,-32.9362 -40.7811,-7.36064 -86.8879,-11.5299 -135.398,-11.5299 -48.0874,0 -93.5493,4.02402 -133.63,11.1402 -42.3803,7.52363 -79.0028,18.5752 -106.711,32.0776z"/>
  <path class="fil4" d="M1288.9 601.774c-12.5976,-43.7611 -30.2752,-83.6753 -51.9744,-118.269 -31.2189,6.57638 -63.3709,11.7508 -96.2788,15.3992 -38.1792,4.23426 -77.1579,6.44292 -116.643,6.44292 -39.4855,0 -78.4642,-2.20866 -116.643,-6.44292 -32.9079,-3.64843 -65.0599,-8.82284 -96.2788,-15.3992 -21.6992,34.5933 -39.3768,74.5075 -51.9744,118.269 -13.8449,48.0981 -21.4677,100.724 -21.4677,155.933 0,115.078 33.052,218.892 86.4875,293.703 51.6922,72.3686 122.402,117.131 199.877,117.131 77.4745,0 148.185,-44.7626 199.877,-117.131 53.4355,-74.8111 86.4875,-178.624 86.4875,-293.703 0,-55.2083 -7.62284,-107.835 -21.4677,-155.933z"/>
  <path class="fil4" d="M997.967 1166.84c0,96.8977 -16.3819,232.031 -16.3819,343.654 0,36.313 84.8292,36.313 84.8292,0 0,-111.623 -16.3819,-246.756 -16.3819,-343.654 -0.493701,-21.5929 -52.5662,-21.404 -52.0654,0z"/>
  <path class="fil5" d="M1223.88 1051.41c53.4355,-74.8099 86.4875,-178.623 86.4875,-293.703 0,-55.2083 -7.62284,-107.836 -21.4677,-155.932 -12.5976,-43.7622 -30.2752,-83.6764 -51.9744,-118.27 -31.2189,6.57638 -63.3709,11.7508 -96.2788,15.3992 -38.1803,4.23426 -77.1579,6.44292 -116.643,6.44292l0 645.37c12.8941,0.0791339 25.7882,5.42953 26.0327,16.1268 67.206,-8.79331 128.003,-51.2587 173.844,-115.435z"/>
  <path class="fil5" d="M1066.41 1510.5c0,-111.623 -16.3819,-246.756 -16.3819,-343.654 -0.244488,-10.6937 -13.1386,-16.0441 -26.0327,-16.1232l0 17.8228 0 340.83 0 28.3595c21.2079,0 42.4146,-9.07796 42.4146,-27.2351z"/>
  <path class="fil5" d="M1276.07 1584c5.29016,-11.1839 0.694489,-24.6024 -10.428,-30.1642 -27.6248,-13.8579 -64.4823,-25.2118 -107.283,-32.9362 -28.3949,-5.12481 -59.3717,-8.70237 -91.9442,-10.4043 0,18.1571 -21.2067,27.2351 -42.4146,27.2351l0 46.2697 252.07 0z"/>
 </g>
</svg>
